<svg width="256" height="256" viewBox="0 0 256 256" fill="none" xmlns="http://www.w3.org/2000/svg">
  <defs>
    <linearGradient id="bubbleGradient" x1="28" y1="24" x2="224" y2="228" gradientUnits="userSpaceOnUse">
      <stop stop-color="#9DF26A"/>
      <stop offset="0.52" stop-color="#33B56A"/>
      <stop offset="1" stop-color="#066F51"/>
    </linearGradient>
    <linearGradient id="bagGradient" x1="83" y1="69" x2="164" y2="194" gradientUnits="userSpaceOnUse">
      <stop stop-color="#FFFFFF"/>
      <stop offset="1" stop-color="#D8F1EA"/>
    </linearGradient>
    <filter id="shadow" x="33" y="42" width="190" height="183" filterUnits="userSpaceOnUse" color-interpolation-filters="sRGB">
      <feDropShadow dx="0" dy="12" stdDeviation="10" flood-color="#0B6B50" flood-opacity="0.24"/>
    </filter>
  </defs>
  <path d="M50 62C50 44.3269 64.3269 30 82 30H174C191.673 30 206 44.3269 206 62V150C206 167.673 191.673 182 174 182H121L91 208V182H82C64.3269 182 50 167.673 50 150V62Z" fill="url(#bubbleGradient)"/>
  <g filter="url(#shadow)">
    <path d="M133.42 73.713C130.302 69.4583 124.057 69.4583 120.939 73.713L114.419 82.61C112.476 85.2602 109.107 86.3667 105.991 85.3649C95.1869 81.8915 85 90.037 85 101.387V135.886C85 161.352 105.648 182 131.114 182C156.58 182 177.228 161.352 177.228 135.886V101.387C177.228 90.037 167.041 81.8915 156.237 85.3649C153.121 86.3667 149.752 85.2602 147.809 82.61L141.289 73.713H133.42Z" fill="url(#bagGradient)"/>
    <rect x="103.5" y="85" width="55" height="18" rx="9" fill="#FBFEFD"/>
    <path d="M118 85C118 76.1634 125.163 69 134 69H128C136.837 69 144 76.1634 144 85V85H118V85Z" fill="#EAF8F4"/>
    <path d="M133.772 116.8C140.671 116.8 146.265 122.394 146.265 129.293C146.265 135.469 141.786 140.6 135.887 141.62V150.683C135.887 153.225 133.826 155.286 131.284 155.286C128.742 155.286 126.681 153.225 126.681 150.683V141.839C122.42 141.344 118.475 139.668 115.208 137.081C113.216 135.504 112.88 132.607 114.458 130.615C116.035 128.623 118.932 128.287 120.924 129.864C123.428 131.847 126.61 132.919 129.906 132.919H133.772C135.588 132.919 137.059 131.448 137.059 129.632C137.059 127.817 135.588 126.345 133.772 126.345H128.797C121.898 126.345 116.304 120.751 116.304 113.852C116.304 107.676 120.782 102.545 126.681 101.525V92.4626C126.681 89.9206 128.742 87.8594 131.284 87.8594C133.826 87.8594 135.887 89.9206 135.887 92.4626V101.306C139.324 101.707 142.55 102.884 145.335 104.725C147.456 106.127 148.038 108.982 146.636 111.103C145.234 113.224 142.379 113.806 140.258 112.404C138.067 110.955 135.499 110.186 132.872 110.186H128.797C126.981 110.186 125.51 111.658 125.51 113.473C125.51 115.289 126.981 116.76 128.797 116.76L133.772 116.8Z" fill="#24A35E"/>
  </g>
</svg>
